# xmcd CD database file
#
# Track frame offsets:
#	183
#	21848
#	49393
#	72633
#	99045
#	123863
#	147668
#	166248
#	181695
#	194478
#	210283
#	231908
#
# Disc length: 3455 seconds
#
# Revision: 0
# Processed by: cddbd v1.5PL3 Copyright (c) Steve Scherf et al.
# Submitted via: CDex 1.51
#
DISCID=a60d7d0c
DTITLE=Enos - Salsa y Merengue
DYEAR=1900
DGENRE=Salsa
TTITLE0=Quien puede ser ella
TTITLE1=Mi'n por bai swing
TTITLE2=La gatita
TTITLE3=Primi primi
TTITLE4=Barbero
TTITLE5=Mi ke sali ku bo
TTITLE6=Compas
TTITLE7=Saxofoon
TTITLE8=Respeta mi dolor
TTITLE9=Jong Colombia
TTITLE10=Quin puede ser ella -instr.
TTITLE11=Mi'n por bai swing - instr.
EXTD=
EXTT0=
EXTT1=
EXTT2=
EXTT3=
EXTT4=
EXTT5=
EXTT6=
EXTT7=
EXTT8=
EXTT9=
EXTT10=
EXTT11=
PLAYORDER=
